<?xml version="1.0" encoding="UTF-8" standalone="no"?>
<svg
   xmlns:dc="http://purl.org/dc/elements/1.1/"
   xmlns:cc="http://creativecommons.org/ns#"
   xmlns:rdf="http://www.w3.org/1999/02/22-rdf-syntax-ns#"
   xmlns:svg="http://www.w3.org/2000/svg"
   xmlns="http://www.w3.org/2000/svg"
   xmlns:sodipodi="http://sodipodi.sourceforge.net/DTD/sodipodi-0.dtd"
   xmlns:inkscape="http://www.inkscape.org/namespaces/inkscape"
   width="132.29167mm"
   height="48.86869mm"
   version="1.1"
   viewBox="0 0 100 83.626036"
   id="svg19"
   sodipodi:docname="DOXTER Logo - optimized.svg"
   inkscape:version="0.92.3 (2405546, 2018-03-11)"
   style="enable-background:new">
  <title
     id="title4533">DOXTER Logo</title>
  <metadata
     id="metadata23">
    <rdf:RDF>
      <cc:Work
         rdf:about="">
        <dc:format>image/svg+xml</dc:format>
        <dc:type
           rdf:resource="http://purl.org/dc/dcmitype/StillImage" />
        <dc:title>DOXTER Logo</dc:title>
      </cc:Work>
    </rdf:RDF>
  </metadata>
  <sodipodi:namedview
     pagecolor="#ffffff"
     bordercolor="#666666"
     borderopacity="1"
     objecttolerance="10"
     gridtolerance="10"
     guidetolerance="10"
     inkscape:pageopacity="0"
     inkscape:pageshadow="2"
     inkscape:window-width="1920"
     inkscape:window-height="1017"
     id="namedview21"
     showgrid="false"
     inkscape:zoom="0.5946522"
     inkscape:cx="-217.31573"
     inkscape:cy="-141.34533"
     inkscape:window-x="-8"
     inkscape:window-y="-8"
     inkscape:window-maximized="1"
     inkscape:current-layer="svg19" />
  <defs
     id="defs13">
    <filter
       id="filter6558"
       style="color-interpolation-filters:sRGB">
      <feFlood
         flood-color="rgb(0,0,0)"
         flood-opacity=".49804"
         result="flood"
         id="feFlood2" />
      <feComposite
         in="flood"
         in2="SourceGraphic"
         operator="in"
         result="composite1"
         id="feComposite4" />
      <feGaussianBlur
         in="composite1"
         result="blur"
         stdDeviation="3"
         id="feGaussianBlur6" />
      <feOffset
         dx="6"
         dy="6"
         result="offset"
         id="feOffset8" />
      <feComposite
         in="SourceGraphic"
         in2="offset"
         result="composite2"
         id="feComposite10" />
    </filter>
  </defs>
  <g
     transform="matrix(0.37862503,0,0,0.37862503,-65.894768,-74.912613)"
     aria-label="DOXTER"
     id="g17">
    <path
       d="m 227.03,216.26 c -3.6811,0 -5.0487,2.3007 -3.9738,5.5217 l 26.94,84.666 -44.731,88.347 c -1.6859,3.221 -0.75237,5.5217 2.9288,5.5217 h 23.696 c 2.5308,0 4.4599,-0.91955 5.5984,-3.2203 l 27.366,-55.677 16.807,55.677 c 0.70208,2.3007 2.4539,3.2203 4.9847,3.2203 h 23.698 c 3.6811,0 5.0504,-2.3007 3.9755,-5.5217 l -14.848,-46.512 c 0.0799,-0.0431 0.15149,-0.0777 0.23526,-0.12445 1.7908,-0.99986 3.5574,-3.0904 3.8101,-4.5108 0.46996,-2.6412 -2.0058,-5.8532 -5.0341,-6.5309 -0.6847,-0.15324 -1.1388,-0.21529 -1.5974,-0.15855 -0.28579,0.0354 -0.59604,0.13762 -0.94102,0.27276 l -9.8262,-30.783 43.231,-84.666 c 1.6859,-3.221 0.75235,-5.5217 -2.9288,-5.5217 h -23.006 c -2.5308,0 -4.4599,0.92126 -5.5984,3.222 l -26.567,54.526 -16.226,-54.526 c -0.70207,-2.3007 -2.4556,-3.222 -4.9864,-3.222 z m 204.52,6.9724 c -0.46424,0.0281 -0.86754,0.28655 -1.253,0.77737 -0.50862,0.64762 -0.52368,0.9526 -0.10228,1.9349 0.27508,0.64126 0.79413,1.4475 1.1541,1.7934 0.95112,0.91384 1.8702,0.6991 2.6816,-0.62735 0.83539,-1.3657 0.59259,-2.2886 -0.85918,-3.2748 -0.6317,-0.42913 -1.157,-0.63163 -1.6212,-0.60348 z m 67.189,0.41937 c -0.25331,0.009 -0.67161,0.12441 -1.2615,0.37163 -1.4604,0.612 -3.1774,1.9346 -3.1436,2.4207 0.0385,0.55049 0.66863,0.36331 2.5367,-0.7535 1.9173,-1.1463 2.6283,-2.0673 1.8684,-2.0389 z m -77.015,0.23014 c -0.87039,0.0608 -1.1924,0.758 -0.59154,1.2803 0.59051,0.51333 1.6187,0.11656 1.5684,-0.60518 -0.0379,-0.54253 -0.29865,-0.72247 -0.97683,-0.67508 z m 7.5946,4.4085 c -0.21447,0.0187 -0.48739,0.30804 -0.98023,0.95636 -0.66742,0.87798 -1.5921,1.475 -3.1248,2.0167 -1.197,0.42311 -2.5416,1.1561 -2.9884,1.6297 -0.89417,0.948 -1.8418,2.9951 -2.0985,4.5312 -0.19132,1.1448 0.38959,2.5632 1.3979,3.8306 h -11.695 c -1.5082,0 -2.6441,1.0057 -2.8623,2.6816 l -3.655,28.069 c -15.982,7.8529 -28.055,13.84 -36.395,18.031 l 3.4709,-26.661 h 19.439 c 1.8434,0 2.8128,-1.004 3.031,-2.6799 l 2.1821,-16.759 c 0.2182,-1.6758 -0.48867,-2.6816 -2.3321,-2.6816 h -61.671 c -1.6758,0 -2.8128,1.0057 -3.031,2.6816 l -2.1821,16.759 c -0.2182,1.6758 0.65627,2.6799 2.3321,2.6799 h 19.439 l -2.419,18.58 c -0.64299,0.74717 -1.1113,1.599 -1.0757,2.1088 0.0308,0.44062 0.2648,1.0123 0.59325,1.5905 l -2.2383,17.197 c -1.1775,0.32942 -2.4768,0.59274 -4.0914,0.84556 -3.9789,0.62299 -4.8962,0.40884 -6.1541,-1.4303 -1.8424,-2.6936 -6.8555,-4.743 -9.2329,-3.7743 -1.2051,0.49103 -2.5258,2.9537 -3.3277,6.2019 -0.49831,2.0184 -0.373,2.565 0.95807,4.1562 0.37751,0.45127 0.221,0.93966 -0.8268,2.569 -0.71139,1.1062 -1.5663,2.9923 -1.8991,4.1903 -0.33282,1.198 -0.81303,2.1916 -1.0672,2.2094 -0.2542,0.0177 -0.79208,-0.52451 -1.1967,-1.2053 -0.91816,-1.5446 -4.605,-4.037 -6.2905,-4.2533 -1.1627,-0.14921 -1.4011,10e-4 -2.9714,1.8565 -1.1962,1.4131 -2.0823,2.1015 -2.9543,2.2997 -0.68485,0.15566 -1.7982,0.40937 -2.4736,0.56257 -1.786,0.40511 -4.245,2.4464 -5.0852,4.221 -0.82782,1.7483 -1.0715,4.598 -0.56086,6.5547 0.44717,1.7136 4.9166,5.8944 7.4395,6.9588 2.2739,0.95928 2.6389,1.4455 1.6553,2.2025 -0.8259,0.63565 -0.91438,1.9592 -0.20627,3.0856 0.28118,0.44729 0.82483,0.66101 1.5496,0.6103 0.87161,-0.0609 1.6603,-0.67048 3.6021,-2.7838 1.3675,-1.4883 3.2447,-3.224 4.1715,-3.8578 1.075,-0.73517 1.6663,-1.4069 1.6348,-1.8565 -0.0698,-0.99772 -0.62723,-0.84015 -2.2128,0.62734 -0.75947,0.70295 -2.4685,1.7309 -3.7982,2.2844 -3.8073,1.5848 -3.9437,1.1141 -0.82339,-2.852 4.043,-5.139 4.0198,-5.0869 3.7215,-8.1981 -0.21932,-2.2866 -0.16464,-2.7497 0.32389,-2.7838 1.0621,-0.0743 2.113,0.61225 1.9622,1.2803 -0.31019,1.3741 2.096,2.8974 4.33,2.7412 1.8374,-0.12848 1.9596,0.18923 0.76885,1.9997 -1.163,1.7682 -0.77052,2.1794 1.2615,1.3246 1.605,-0.67523 4.3064,-0.83374 8.5851,-0.50461 1.273,0.0979 1.581,0.0111 1.5496,-0.43812 -0.0663,-0.94831 3.8847,-6.3561 4.3505,-5.9547 0.2477,0.21348 -0.85271,2.3707 -2.0627,4.0437 -0.87989,1.2164 -1.1035,1.7958 -0.79442,2.0644 0.69524,0.60434 3.0177,-1.0735 3.3652,-2.431 0.16057,-0.62733 0.64122,-1.5385 1.0672,-2.0252 1.1637,-1.3298 1.0565,-3.2976 -0.26253,-4.8432 -0.80677,-0.94542 -0.83285,-1.0945 -0.38186,-2.1395 0.26669,-0.61794 1.683,-2.2644 3.147,-3.6584 1.1001,-1.0474 1.9301,-1.9897 2.2724,-2.5418 l -8.1282,62.431 c -0.24003,1.8434 0.65626,2.6816 2.3321,2.6816 h 17.428 c 1.8434,0 2.791,-0.83814 3.031,-2.6816 l 8.5135,-65.38 c 0.15279,0.18098 0.32534,0.37018 0.5404,0.57791 0.44404,0.42894 1.1399,0.75638 1.5462,0.72792 1.904,-0.13314 2.5963,-2.8338 1.0672,-4.163 -0.93311,-0.81115 -1.8745,-0.80323 -2.7839,0.0153 l 1.2325,-9.4682 c 0.0518,-0.0305 0.0879,-0.0513 0.13979,-0.0818 10.788,-6.3504 22.117,-12.647 36.562,-20.297 l -1.4115,10.847 c -2.217,0.66392 -3.7375,2.014 -5.1262,4.4869 -0.76864,1.3688 -1.4509,2.6704 -1.5155,2.893 -0.0797,0.27466 -0.378,0.27378 -0.9325,-0.003 -1.6403,-0.81994 -3.4588,-0.0961 -5.2728,2.1002 -0.6862,0.83084 -1.3579,1.243 -2.1105,1.2956 -1.2112,0.0847 -2.3936,1.0769 -2.3321,1.957 0.0547,0.78232 1.232,1.8379 1.9912,1.7849 0.34792,-0.0243 1.0318,-0.40761 1.5206,-0.85067 0.48884,-0.44309 1.0029,-0.81362 1.1422,-0.82339 0.13927,-0.01 0.70044,0.28734 1.2462,0.65802 1.4751,1.002 4.0044,0.73286 5.1142,-0.54381 0.47304,-0.5442 0.95372,-0.99624 1.0672,-1.0041 0.11344,-0.008 1.0727,0.661 2.1309,1.4865 0.36891,0.2878 0.7933,0.56008 1.2206,0.81488 l -9.5006,72.97 c -0.2182,1.6758 0.65507,2.6816 2.1633,2.6816 h 61.671 c 2.011,0 2.8128,-1.0057 3.031,-2.6816 l 2.1821,-16.759 c 0.24002,-1.8434 -0.3211,-2.6816 -2.3321,-2.6816 h -41.896 l 4.4085,-33.851 h 32.008 c 1.6758,0 2.8115,-1.0052 3.0515,-2.8486 l 2.1599,-16.591 c 0.24002,-1.8434 -0.6341,-2.8486 -2.3099,-2.8486 h -5.5813 c 0.44514,-1.6606 -0.13009,-3.3548 -1.6519,-4.758 -0.9238,-0.85178 -1.287,-1.1059 -2.015,-1.0552 -0.24267,0.0169 -0.52467,0.0677 -0.88305,0.14148 -2.1013,0.43284 -4.171,2.8773 -4.0386,4.7716 0.0205,0.2929 0.10967,0.59647 0.23014,0.90011 h -18.069 l 0.44323,-3.4095 0.12275,-0.17388 c 0.32963,-0.47078 0.58895,-1.0039 0.5762,-1.1848 -0.0106,-0.15147 -0.21316,-0.22788 -0.48926,-0.2506 l 3.7112,-28.498 h 41.896 c 2.011,0 2.8333,-1.1728 3.0515,-2.8486 l 2.1821,-16.759 c 0.21821,-1.6758 -0.32109,-2.6816 -2.3321,-2.6816 h -38.024 c 0.70961,-1.2624 1.1167,-2.972 1.3553,-5.3734 0.16866,-1.6976 0.38998,-3.4691 0.49267,-3.9362 0.2313,-1.0522 -0.2627,-1.0499 -1.4286,0.007 -0.99747,0.90407 -2.4181,1.1383 -3.1333,0.51654 -0.26122,-0.22708 -0.52398,-1.0873 -0.58473,-1.911 -0.0607,-0.82374 -0.2865,-1.7353 -0.5012,-2.0269 -0.12179,-0.16544 -0.22931,-0.25161 -0.35799,-0.24037 z m 7.9356,0.0818 c -0.88184,0.0617 -1.7354,0.78776 -1.7354,1.2547 0.33794,0.46994 1.4497,0.33951 1.9434,-0.22844 0.56848,-0.65396 0.48308,-1.0746 -0.20798,-1.0263 z m 16.284,0.52847 c -0.15176,0.012 -0.31529,0.14665 -0.45858,0.41936 -0.11695,0.22242 -0.10335,0.63988 0.0307,0.92739 0.3944,0.846 1.0129,0.54761 0.94273,-0.45517 -0.0413,-0.59026 -0.26189,-0.91155 -0.51484,-0.89158 z m 33.64,1.0467 c -0.68408,0.0224 -2.5374,0.93967 -2.9611,1.5343 -0.40234,0.56454 -0.33552,0.59484 0.63927,0.28298 1.2579,-0.4024 2.8395,-1.5045 2.5367,-1.7678 -0.0424,-0.0368 -0.11708,-0.0526 -0.2148,-0.0494 z m -5.4092,3.3703 c -0.0269,-0.0449 -0.24982,0.0274 -0.69383,0.17559 -1.4641,0.48852 -3.8553,1.9161 -4.3403,2.5912 -0.39593,0.55129 -0.34173,0.58394 0.45517,0.27447 1.2252,-0.47581 3.2461,-1.7163 4.0948,-2.5128 0.34111,-0.32011 0.51103,-0.48354 0.48414,-0.52848 z m -404.97,7.9373 c -1.8434,0 -2.8128,1.0057 -3.031,2.6816 l -16.758,128.7 c -0.24003,1.8434 0.48867,2.6816 2.3321,2.6816 h 40.22 c 15.753,0 25.223,-8.3795 27.274,-24.132 l 11.149,-85.636 c 2.0512,-15.753 -5.2138,-24.299 -20.967,-24.299 z m 105.24,0 c -15.753,0 -25.223,8.3796 -27.274,24.132 l -11.173,85.803 c -2.0512,15.753 5.2377,24.132 20.991,24.132 h 18.769 c 15.753,0 25.223,-8.3795 27.274,-24.132 l 11.171,-85.803 c 2.0512,-15.753 -5.236,-24.132 -20.989,-24.132 z m 309.79,0 c -1.6758,0 -2.8128,1.0057 -3.031,2.6816 l -16.758,128.7 c -0.21821,1.6758 0.65625,2.6816 2.3321,2.6816 h 17.428 c 1.6758,0 2.8128,-1.0057 3.031,-2.6816 l 5.4995,-42.232 h 11.563 l 5.6853,42.566 c 0.13878,1.5082 0.86766,2.3474 2.5435,2.3474 h 17.428 c 1.8434,0 2.9804,-1.0064 2.7395,-3.0174 l -5.8456,-43.907 c 8.5022,-3.5192 13.651,-10.893 15.113,-22.121 l 5.3256,-40.89 c 2.0511,-15.753 -5.2377,-24.132 -20.991,-24.132 z m -307.74,21.62 h 9.7205 c 4.3572,0 6.3976,2.3459 5.8302,6.7031 l -10.082,77.423 c -0.58916,4.5248 -3.2187,6.7031 -7.5759,6.7031 h -9.7188 c -4.3572,0 -6.4194,-2.1783 -5.8302,-6.7031 l 10.08,-77.423 c 0.56734,-4.3572 3.2187,-6.7031 7.5759,-6.7031 z m -90.057,0.5012 h 15.418 c 4.3572,0 6.3972,2.3471 5.8081,6.8718 l -9.9284,76.25 c -0.58916,4.5247 -3.2187,6.7031 -7.5759,6.7031 h -15.418 z m 415.03,0 h 16.591 c 4.3572,0 6.3976,2.3476 5.8302,6.7048 l -4.1033,31.505 c -0.56734,4.3572 -3.2187,6.703 -7.5759,6.703 h -16.591 l 0.81316,-6.2377 c 0.47276,0.28066 1.712,0.2441 2.0235,-0.11422 0.3266,-0.37571 -0.54755,-1.5842 -1.1166,-1.5445 -0.26728,0.0187 -0.53775,0.19632 -0.74839,0.4296 z m -45.726,3.9908 c -1.0614,0.0514 -2.2866,0.59385 -4.3181,1.7048 -2.6421,1.4448 -3.0081,1.5288 -5.5643,1.2888 -1.6188,-0.15204 -3.0662,-0.0624 -3.5425,0.21821 -0.75448,0.44453 -0.76733,0.5216 -0.20457,1.2325 0.33137,0.41864 1.2359,0.81827 2.0167,0.89159 2.169,0.20372 3.9473,1.3822 5.8831,3.897 0.97006,1.2602 2.2376,2.6199 2.8162,3.0208 1.2864,0.89138 5.5439,1.0376 7.4872,0.25742 4.8223,-1.9361 3.7623,-8.4297 -1.9059,-11.674 -0.84526,-0.48383 -1.5166,-0.76881 -2.2213,-0.82851 -0.14681,-0.0124 -0.29501,-0.0159 -0.44664,-0.009 z m -31.884,3.984 c -1.1526,0.0806 -3.3959,1.9649 -3.5817,3.0089 -0.26782,1.5051 1.294,3.5663 2.8964,3.8238 2.1373,0.3434 4.184,-1.2834 4.0488,-3.2169 -0.10379,-1.4844 -2.164,-3.6996 -3.3634,-3.6158 z m -2.4207,19.48 c -1.1521,0.0806 -2.7335,1.5728 -3.0498,2.8793 -0.28123,1.1617 0.32305,2.5157 1.2513,2.806 1.2089,0.37814 2.547,-0.0934 3.4351,-1.2104 0.90082,-1.1331 0.91062,-1.6237 0.0665,-3.3038 -0.51103,-1.0172 -0.82243,-1.2328 -1.703,-1.1712 z m -90.462,6.9741 c -0.20273,0.0295 -0.39449,0.25728 -0.45005,0.66486 -0.0463,0.34 0.1748,0.56519 0.53018,0.5404 0.38096,-0.0266 0.54444,-0.28245 0.43812,-0.6819 -0.10234,-0.38458 -0.31551,-0.55288 -0.51825,-0.52336 z m 167.24,5.9206 c -0.46818,0.0603 -0.81524,0.62071 -0.7535,1.5036 0.0721,1.031 0.18082,1.1272 1.0859,0.95807 1.1551,-0.21583 1.3905,-1.0287 0.57791,-1.9911 -0.30621,-0.36267 -0.62943,-0.50668 -0.91033,-0.47051 z m -209.28,6.3007 c -0.85275,0.16218 -2.1751,1.3757 -2.1258,2.0815 0.0476,0.68179 1.0014,1.5731 1.9894,1.8599 0.86735,0.2518 1.1182,0.21883 1.865,-0.2506 1.3518,-0.84977 0.45045,-3.2293 -1.3979,-3.6908 -0.0973,-0.0243 -0.20891,-0.0232 -0.33073,0 z m 73.495,2.5384 c -0.24431,-0.01 -0.4933,-0.009 -0.74156,0.007 -1.7128,0.10676 -2.0015,0.24167 -2.8214,1.3229 -0.50226,0.66238 -0.85813,1.5497 -0.79101,1.9707 0.12188,0.76476 1.2672,2.1903 2.0815,2.5912 1.1849,0.5834 6.2626,-3.1387 5.8422,-4.2823 -0.32127,-0.87385 -1.8596,-1.5393 -3.5697,-1.6093 z m 51.599,9.0215 c -0.29038,0.0208 -0.58345,0.10989 -0.85067,0.27788 -0.92647,0.58247 -0.90239,2.1301 0.0409,2.5946 1.4784,0.72806 2.6956,0.007 2.5878,-1.5343 -0.0595,-0.85117 -0.9069,-1.4006 -1.778,-1.3382 z m -46.511,7.1105 c -0.69857,0.0566 -1.1496,1.3414 -0.65973,2.2724 0.78573,1.4934 2.6894,0.89093 2.5316,-0.80123 -0.0491,-0.52575 -0.54633,-0.9777 -1.5581,-1.4149 -0.10788,-0.0466 -0.21387,-0.0643 -0.31368,-0.0563 z m -57.862,1.1746 c -0.46138,0.0323 -1.1247,1.0342 -0.84555,1.2768 0.38241,0.33242 1.2458,-0.22875 1.207,-0.78418 -0.0198,-0.28341 -0.18286,-0.50524 -0.36141,-0.49267 z m -12.02,12.753 c -0.27385,0.0389 -0.49451,0.28111 -0.4654,0.69725 0.0261,0.37299 0.16515,0.78076 0.31027,0.90692 0.69288,0.6023 1.3644,-0.17232 0.93931,-1.0842 -0.18374,-0.39418 -0.51034,-0.55889 -0.78418,-0.51996 z"
       id="path15"
       inkscape:connector-curvature="0"
       style="fill:#ff2121;filter:url(#filter6558)" />
  </g>
</svg>
